<mxfile host="drawio-plugin" modified="2022-11-18T03:19:21.990Z" agent="5.0 (X11; Linux x86_64) AppleWebKit/537.36 (KHTML, like Gecko) Chrome/98.0.4758.102 Safari/537.36" etag="T0ajS-JzfovxnXCOAmxP" version="20.5.3" type="embed"><diagram id="23iRSUPoRavnBvh4doch" name="Page-1"><mxGraphModel dx="953" dy="723" grid="1" gridSize="10" guides="1" tooltips="1" connect="1" arrows="1" fold="1" page="1" pageScale="1" pageWidth="827" pageHeight="1169" math="0" shadow="0"><root><mxCell id="0"/><mxCell id="1" parent="0"/><mxCell id="2" value="" style="shape=stencil(rVnZjhw3DPyaeSUkUeez7fyHAa+zg2x2jfXGx9+HykA9rdJ0jQP4bY6iWqLIYpF90ndfHz9+eTgF9/Xt9eWvh+/nT2+PJ31/CuH8/Pjwen6zTyf9cNJ3n19eH/58ffnn+dPl+5ePHdk//f3yra/w42LXnDjtVsH9vPwSJKf/fvjjgn86P+/wNYgvEz6KxmN8yRLihE+iZP3cJM/4LJ6sn20/HvDFHeOTbTdP+CJej/ExS/KAjwSvVYoCPjeC9xIr4Gs+xpu72+z/Oi7wJt43qR7woRB8FpcAXxg+SJ3x3kkKxMBLAoMonhv42UO2x1KJgZM2PyE4GkNmADFnXnb8CRpmA/OqpwZujjoNoiRMm5R5R2p5RMKiSQS83Ts5QRM/uygqTcsqdV7f8qKQ/VTcT3Ijrg7w3s14pQ61pJr9mbY8PcB7wDdpBJ/R/9n8Q/yZkVVyHnlxgHfzeYuj95skA0sozbIkCfBZIqGhFd8kUDz4p3qpdD+QkjWOCDzwTwR8kUb932b/Nz/qzlE8zOs3pet7RVpsURJ5gFFOmXm3JV443HD4ZmBBQq4geswZM0iEqlOQpGjASCLHwQmbQRnV9rZX7YgeDdg1VLs3RQMlT7C/a1m2xIiuYrnpW2JM2pAqzCASt7ZFsfRNMm5vy6GterAK6BzShVlkvieoyv1YzK9t0MPOgBGqbQAzrvFTV6yZ3Q/sDMbxuhiQhLBoBmnUt8SeYCzj0CCzQ6dBEjuDQGjMDAp4qVKevGmgLFzXLZURXr966CKJPSHfeMKdHF0TwrOLsyMuLMCqfw++hQVYee7BvBw6cwNMINPZTAffzFFWons0BzSgCdFuJMSdUyOVtVGVDskyogENpq1Zuar/zQ+/yaLXiIU4KqvtaXhlb8DERhwt0S8+wSop1rlGu6ToRqHdMw0xCJs83RkwAReWPr5TEysqXgowfqVeSosYqLxJWio1l6Bu4aVIWxK33LKnPGb6al6/VqpN3NIIR9qyLfnfJTE9L7YAdmEk17YedifplYSQG3OZXcvAhI9bBhe2QxZAKD+t5WHF0w8VtWupmCTxmDLWsjF5GzAerCVkyjAs6wfKdYpFKm5N+gG+zrTVR0kEH0fJ27XkbGph/cecv9bys0lTRNWpmfo/4aBPAy3KaSih3UyEr69z/JjHWPlL2GL3DKLrQ7fj850WHgaJ1vOxSVnBwWYffJH72uj4OljzJB19GKe7DjbZYNanwQbXQStr7nwby13xmdCbxU9FfCLrq0f+SbSN0kV7JOp+y6aAg2jWwac42OyKzyTds0e1dWdiYeJtjmflE6mE+w9SCN1Wh+t72txYdYMBhKMCtjasj3dk2cY2OzzTlg75xI0CcoTPuB/atztsSB2VG31ApIBnEs7w2sD/TP4YPgL/DNF4uD7MxUdBPsKDuA/0RYD5pyKeTqAdvpgIo4c6wv+vF0n38fbh+tbq8/np6fLSa/8/vuWyny5vyPTDvw==);lineShape=1;" vertex="1" parent="1"><mxGeometry x="113.29213560580683" y="135.5353020980648" width="71.28504391558067" height="107.98296463435531" as="geometry"/></mxCell><mxCell id="3" value="" style="shape=stencil(lVjLctswDPwaXTEkwec5Tf8jM3FqT1074zh9/H2hqpRFUFqPb7aEJQlgFwA18NPH/uV9Nzjzcb2cv+9+HV6v+4G/DM4dTvvd5XCVXwM/D/z0dr7svl3On6fX6f/7y2g5/vpx/jmu8HvCFXJpBDnzZ3pgDZn878nXyf54OC3sbSJfNCCnbYDLFI0GlLAN4ELePXKkYCm0O2Ryfts+Mtl2g0ABrJ8s5XZ9Bz1OhUprL+cH5ymeTND2BqTAzO8rwMMDFTlQ7iIKdhBAbk8kaXcgZwIwLStcJHYAkKjYBsCxRm0dECm0O/hMbAEg1BPPWS4wzYWpcANImHdlpsEMKMTIB0ulJV6evdoC/CdOBciTxAAgWmwzLWGI6EiixTasJVNCZDWU2sRJ7i2gRu7IJ4AAEpezDqsAEohSTlr/I+EjAEStn4Wk1hGegu+2QADWdVUAEZApu6qXBYBRXLuqJJmDXgt1ggYEkGo5ks0aYBGAdSETmWccVhc1ICAfhM1FAzwQhHDDmQ6AfJB2ZbsjocQJOXPnNFZQ7BJnURUQjSYNuCPqrMIq9RnVSrPCVo8SJ2NDJ+qERJ1WqkABDWKsjA9qNFQfl1sgBTHFvtAg9rkucxIm0HhzV/DHYol8sF11zbhsPAxwdTZadIg7VUDz21JEkmNdK8dcIm742sgXfdShHUItQ8tOjXaIGhDu9KBEpp0FZNpAA5AAUguQeQZVAakzptXoODEhaiSKrQ8ykzGKkjjdjfYOSc7Xcec2F0N2s26jDjJJeMOty1xjsLW+mhGl+gP7xDWnt3sAknOMmtkSINQbQn8zsfWIWzeT3LLCMhyWhDS+dcF6OPA5240yvnaL9ctDJ2cBBHAkeZu0CwnwlDWJxN6D7iYhsl2IQAEzVVazvasrbNg71vYM19cBtbBRmU5lljxgnanj9cLegPWtblJCUlR+nb58ij26iXktSrFHLSp0w0jt7Oui1FWrQHo++jnivr38uH37eDscj9Onk+V7/a1EHk3fWfj5Lw==);lineShape=1;" vertex="1" parent="1"><mxGeometry x="213.821483487681" y="143.54425606961365" width="31.492202416031432" height="113.20814524945547" as="geometry"/></mxCell><mxCell id="4" value="" style="shape=stencil(lVbLctswDPwaXTEkwOc5Tf8jM3FqTV0747ht8veFqrFrCNY2vsn0giSwuwAHeXjbPr1uBg5vp+Ph++b3+HzaDvJlYB73281xPOnXII+DPLwcjptvx8PP/fP8+/VpQk5fPw6/ph3e5zihLlMQh495IVAIfxe+zvDduL+CM1MJBs+U4jpeMsVk8EKc1vGpUc4Gn6iWdXwRSnb/TA3gW6BSDL5Qqev4rn+zwVfiDPCVqq1Pp9QAvp2PP+Njpg4S6LqfvZBmEAADGtCaZUBrDE6I4SKBS02ZhOERdVFUZUFgANsTaqWCyyT2hKbEAB0pD2J11CMUkhLNiwCmDJzQ8zKH1qihgETcbUCkgHIQKtabVZlBPKi3LNW5UEfacAFJKCAe3JVU3x35xyUdG9a3K2uMFPs9xFXMm1NGw45W6S0cKueVT4pbe6RgNyzsI4kiYOGGQ9Ol73yyCZRICWXt2kxNcDD4RtYSVrfvlIEyUrdrxerQinK4N8APB9U7Ys5PH9V7vGu8TXoHAX5+alaoj/kBrYXOwD/uAXClrtsnULdS6pekVvChL2vEwD+RJFoh1bMWb+LDUni1UQL3D8Q24aJKBCT7aVhgF/beFNgi3X2EYX1cvloxRLCrZ9TBBvZ3fGVYHicH3FjufG/+F64f/562L+NuN7+Mr/9fPoV1aX5Gy+Mf);lineShape=1;" vertex="1" parent="1"><mxGeometry x="225.49494593904092" y="242.48390029804443" width="38.28490717427644" height="3.032199403911136" as="geometry"/></mxCell><mxCell id="5" value="" style="shape=stencil(rVddUxsxDPw196qxJVu2nyn8D2YIzQ0hYUKg5d+j9LgQK7mddqZvx7Hr08dq5Qxy87q+f1kNHF4P+93T6tf4cFgP8mNgHrfr1X482NMgt4PcPO72q5/73dv2Yfr75f6IPD49796PJ/yeeDEECuFI4/Axvcqk+ufF3UTYjNszQmvEPT5WUgEEptA6gjC1tkyoiSp3hGSEuEwomUrpUxDKgKCZQuwIKtTqMsHOk9QRihHKMkEaRe0IltXXEVcJMVHKHaFVKogQ5wBOhEYKCBZRjz9r/fUqkYj/QAFFEirqM0B9jlT6JrQCMw6Uelk0pQjxTtjNWgCUHWbNnPBMGcZfe123SIGX8cnHUxtVpFJS9vgA6t8oOclZ/UE8kYmz/4CASTaNqpNcIAYRRaV0USIFYxMLZdczm7wMCeqalikiglJ1X7A3KKTTeWeyhpPMVB3BOgPmLAaK7AkN5FCI9QIPhJQoXziFADyTsM+YQQKBSvYlLRAfejO1wWxwMNnhZfayhcF0Zm2qQ+tAiJ3Rhdm9/wveJjn1Ii0mW1Ag2x5ubhQTsnlXL4lcKSJvCbO1nXasqRqMsppk3BavMOmiXkVmUA3kUO2e4BZUnQu9RPiK+Pvmgvzd8KUf/TQL8TpevBkx9Gvb8G4B2oZD8auPP0AnMjvn5vDIfU2VUhwe7Xtbd8mfj+pjU5uTwwvYl+YKTkIRn1+oJYdHtmiuFvt+yayoJXz1eoDr71+vyn9BsIfvm/njuNlMF/vz//ubvL2afgXI7Sc=);lineShape=1;" vertex="1" parent="1"><mxGeometry x="302.13637901008155" y="235.18514013336926" width="20.68582260511471" height="32.93923112488051" as="geometry"/></mxCell><mxCell id="6" value="" style="shape=stencil(lVldkxspDPw1flUNCBA855L/kapsbl23t5vabL7+/TXnwjZiplN5s8dqA5JQtzQnfff18eOXh1Pcvr69vvzz8OP86e3xpH+dYjw/Pz68nt/w6aTvT/ru88vrw9+vL9+eP12+f/nYLfunf1++93/4ecFFk610VNx+XZ4Eifr/gw8X+6fz8529Bkl1st8kb8TeJCdnvxH7pBKas9dI7Jskv/9qx/YZ/58ne5Vcib1JnPefpZH9lCBt3k+V1og9/D/vJ0Qp4RhgUdI2A8oIyT7AxoYHoIeMbKmq6HzkmKQyQJVoM6CJkiC0KKpzEFQsE0CWMHtVq2xkS61ImQ+d4FaSdwDU+dDJJCUKcBcnR8mFAJKE+eZk+I0Bgr86JY1kPIqD85JtEkkuIdLZAYpE4lbkkvNSjbKx5EM1mdO7Gr3POOI25xLcYMRLGdk/5xKSRcmhU10AJoVka4IT58C1KkYAGn2kO4AEDvermN9SIIcOiLQDJJp8vagU79ZI4oAFgo9bYl71ZbjnFrlvqNJzXlgb2b5rv/kSY3n8w4H9NldJ1M1I92OzfamjkO+n3ShwV/siRngzLElUshgJQADPBA8oLIlADM1viYUMRbo5gFFuQ83VGYD6wtIUJTTPhzalJQ+X2dwK4Edy6O5EV5A2yreWRkW8ApI0Eri6CIYKcmNcFT2jN5XG2LBJWAqSMurBVVnKRSFnAKA6AOiTZutyf4BgKgNLtOQBjR/C5kDgiTI6bIM47gDGKL1KXQAsvwFwZHXnh30E/N6WJVgkbKGGRssAZIYtAOXKJ6+BYOmHKrEkRyZ1o6+w0NvGIleW9LNBR0de0uAB9M4tuuTm6KNQp2WFwFaoXtcDEPmtTsuWMot087Wvn4pFGqm2xIFpq12A8RXqckdZd9iWbgxPqOyunoP6miw16uLWRgt+d6ItABY48+1P3xIvAn8I2JaCX0ZTt89BwaufFqj6gdhxTA35xu50AUU5llMqinP2LGc8cKksgEJ1upqXoBAPjILikkvoPjI5w21UcKdn2Apdky2AjZwhBC8TO4CwYh7scXcE1l9B9Tv7RBMje3IwXrptzCKuaRFoWkDmuiJWoZSZS5MnaXSxjZwgtKGzr3ch0iP0M7uqh2aFrID2LS4dJZMyeqXwewCpSdDFTmgAwPIop0VnxMF4h2Mo59Y22oN9QPVuReAiKzHZK0QobwbAz25whVxlXTGE+U5PxlYwn0soa2z+0Qvx7NZsNDX6LGL2Ukavzyg3errqPRHjhhWgfJYWRmG/jsYaHQUgEdyhFY0lc2v2wlsD7dV7pGcVELl8QyK4uhqVckNpY0x1Veq/SW+w2VwEQuE3bul1Q6RqLOsQOrfmgfa6IESnxgptHVJcJ9GZlTHzpThT6tFlRJTHkOmIbl0Ru04s9u2XNwGZTljgjuruGhUYsPfzVT4vyZ7bMp19dnfM5+VUe/v5Zq8kvnEpd0oHn93eDdHHxT6yd9oi0qHBzR03+8DtXacaaGeLeKm3p+OqP3xT9Xt7fLi9Fvt8fnq6vFW7/92/RsOjyys4ff8f);lineShape=1;" vertex="1" parent="1"><mxGeometry x="357.9511195028497" y="139.79889906765527" width="72.50083159568067" height="89.73532797122732" as="geometry"/></mxCell><mxCell id="7" value="" style="shape=stencil(lVbbcuMwCP0avzKSEEJ6brv/0ZmmG8+mSSfN3v5+8XicRrg+2745DsfAgQMMfPe2f3zdDSm8Xc6nH7vf49NlP/D9kNJ43O/O48WeBn4Y+O75dN59P59+Hp/m36+Pk+X09HL6NX3hz4xrjXKcUCn8nd9U4vnFt9n+MB5v7Gumqp19Uiq6DdBC0gO4Uc3bgKLUeoBEUuBBGqXSAQoTyzYg1yWABaBCtWwDknmoHaAVSoClVChLD7CsKgAkyn0O7ZrVh4CopOwBjQEgkeYVIIFKU0iriIB9pqCrlAFHkTh4TiNIIFBw9lePG/b++xESlCj2Na7GD+giodwXoJpyAD+NtOezKiVUsEylT6AWUtBDsZGI9xBQxquSGaABaU5SL56jDHK2pJ2WrQiIJA6rLmXKKCTz4MosCw1bOYjzoEslPwYw1dYD6uJzqw680jIsXCbuPcRw7faNXpKV+AXkIKv5VZexv6EFr+UCR3DwE9i0ie39bElUkBY8QS0sW+Xz9mj8Ror9FtRI0kCfRl9j20IMMsjBizOb1oCH3Kj0IXGBm1mq3zmmbwZJq1Wtr7JNHGRva9hFBAeYspdmhDvQLgWn/QAZqtZF3h6eLrz02Ls9Etk0n6u3ByvZekybsxckYuOnOH4SyNc06BZCIgYiMI27lmNSFE/z9RWKIJ6bIXU9vEgRQV+8Nf9vbw/vh+3zeDjMd/Ht//4QtlfzEc0P/wA=);lineShape=1;" vertex="1" parent="1"><mxGeometry x="470.42719702423074" y="225.11570876090946" width="12.461635712858879" height="29.02087519877466" as="geometry"/></mxCell><mxCell id="8" value="" style="shape=stencil(lVnZUhsxEPwav6p0H8+E/AdVmOAKwZSBHH+fVhwtntFuu3hblpkdTfec8i7cvD7evex33r6+nY7f978O92+Pu/Bl5/3h+XF/OrzhaRdud+Hm4Xjafzsd35/vz3+/3HXJ/vTj+LN/4fdZz5rQupK3f84vXDQh/Hvz9Sz/dHi+kA+mFClvTYrb8tkU+f1iWtkWx9dKFfLJZEfks/FByAcTibz30/lNasRdO8wPeQBGzh+a8Vre2m35CDiykk95Wz5lE6S8HwCswx+NTQpPR+gq8Ffy1Ywl/pZkquTLBdM8UWgmqoDDm7StUJ1x0gJcCATSriApCHhDLOBISWIU8kBhXSHrIIqIIoZSMN5KhURpzkBdohSrKcRp8JxkHiQ3PrGuYI2TPiSkBsmc7EyVR0rJFJb5AFGlch3FYB0lPzAZCtnT5AdximnYbCQbKqJVolTcCMdVheaNlUcC957w0PLAZChUSwtMayZLCzVSHpxdKsqiUU0jGjiTl1TDrcwyCNEncW3JeJ7UTSlwIhDfVSlUaiG1kcKLQqMKyJdUtcL/1rJeuesoQx+djddulMZktQlW+3qvydOZGNdR1w3AVEkpQ/GNRSswqp03bbLAcIWCKpat0DIAhTgpXLGQZZL2pGI+BJ2kPeI5SrrJpQHDFg8xawVKHPJlspBJ9GGOsZNCZShlPSjBaceOBNQnhURyFAoz0/azCqzL9SMpp+ugctPpSSFyWN0U3qwKuGW2uFBgOd1DY8o4GkthBPPlka6E92QhMJSQQFHzwBrEaooG0rR6EVAWsqlsrPd6eIACtRCmjMu0GIMHNyVQYSillSaXmQ/T8NAtsDLzWQX0h2q106y29g40Mc1SFE1OjwJlLAhbbdRNTDNYMeOFiWlHEijXUUkvULJs6oMPKjQCHbFqHv1mUXBja1kfmNzUHzAtE6dbnKa+ROcfDGBqOqme7pUY8by0ABjoFuT1lIglpBIfsMmpDoQhjfUHEOdl1chYaq5sEDL48IZdBmDZjdMGUYnTfYWRKGFHqSQ0sCQVGRr4BCv3KY78WhQs5QEuWulDTykSfABRLTURMHAemuQhBlrusWdF6UO0lDiEhpsWZMf2Xax+Eta+ghNYS9YZhyW/8iOpybhfnBBYseg16TTKc2Z1CS1Q+uAcTVEwHSVxZRCzFUpF1rE0RomtqyLVEuMIra2rKIVpoM0k+FHjPr7vWfNJutInevXmmi70hdb53qBVjaSdZ5nTFr4Q5yyVR8wv8nmMEBvy6jiQT6x16hsZyFeGvx6R3JVerjMA8o7I++nirfCFQQ8jOH9jI5sewByfFOyYti7k2UWg1ctC35lIvli9FfaEJ/hP1yqQZ/FgdZ12kebXZ2/ar8vj4eNa/+Hw9HT+VeDy//pnALw6/4QQbv8C);lineShape=1;" vertex="1" parent="1"><mxGeometry x="522.2906225274508" y="152.08248379800796" width="57.995806379091164" height="91.21340682019468" as="geometry"/></mxCell><mxCell id="9" value="" style="shape=stencil(lVjbUhsxDP2avGpkyddnSv+DGULJlBImQC9/X6UZJ2s5eyhvye6R15aOjiRv9Ob18e5luxF+fTvsv29/7e7fHjf6ZSOye37cHnZv9mujtxu9edgftt8O+/fn+9P/l7sj8vjrx/7ncYXfJzulUo9Gwn9OD5iY/z34eoI/7Z4XcHvdosNLW8droJIcPuk6PgqF4PAlr+OTUCwDPhCD9bNQbg6vZR1fAiV2+FwBvhHLgBfiuI6vkbLHKzhvE5LRP0oBnLdVv34mAfsPfI5/N2ikAj7QqDiHKrUEdxTGiB0pgY6cqI4UkkoCfNrOLjn7KFMFJK3NkzpmGIWaKY5eTZkCMhAq46FzohQgj2T8QlF4hmI7Hg9duVP9ukGkOAauJlJkIFTzaFCpodzh/vpMJUseYJCrTx4LZQGRzkpxpIaRRZBcFAqO3TjS0eg95luzJQC9ox1RvUEBBqqUxjhYhqCMk0icvEEDXLKErKPGW9JC8nkNNnwDopF8+nyAj1TF4yty0bX9o6Ljc8fwSDCEGnuHViCqhs8eH0HR1P52gUdFNnYtWVAIFZ3kFdXwEZA6d34t8CgJileK4/qAP7Xr+QKP4tW8mhq+gvO2SVcqzPrAk0MrdOj8gdZ14z8PYE/A+uagaf2ClNQ3IccEAwkz1YJFWV9j0JRhSFLixLgGi82cAQ0yTq5EGJWaaxmcQMbPClFhGzUrUIEBM4WbqkYCmm4KOhUNxYr7KXywtnfaEAMGmUezKzK4cVTrc52LEgxB5Mkgdl29blB8K2sGSIZS66PAop0I4AzWkwX3hQ+midI7pkVLlJFB861pPX9ztYea2jpUa6xNdANXUSi+xar9eAZzg4Az2AbKmGwp9fRbm3FcHKy9RnJq7XUbz2ANfEbtdfMVzSSWATUsri4ONoSgOdDmLnZzpo05qKaFXoIvc1RFNbP29v7sVagwVX3YIp4PSm/JLnjII/YSpjDINli7EqK9aK0N7twcPoD9W1/t9iOwx9TQK/AFX1EPyH3SuOBh207JDaVwtJHebyzgIO2DH7UEOtPY7PeuAM6+/bBYgOxiz7QAmTldIIQ+pK3BXa8CKzGTjHvnPkyswJ1WMSxKgdTfPilIWvGTGMO9i09xhtXlk1dzH8Ltx+UW8GH39HS6RFy+97eG9uh046i3fwE=);lineShape=1;" vertex="1" parent="1"><mxGeometry x="604.2653292967339" y="138.25900194316773" width="47.34058198733351" height="130.57427538113222" as="geometry"/></mxCell><mxCell id="10" value="" style="shape=stencil(hVbLctswDPwaXTEgCT5wTtP/yEyc2lPXzjhO2/x9qGromKC0vckS1ngtFpjCw9v+6XU3eX67Xs4/d38Oz9f9FL5N3h9O+93lcK1PU3icwsPL+bL7cTm/n56X369Ps+X89Ov8e/6HvwsuJfJlRnn+WN4IFf/vxffF/ng43dlnR8F39p4pZgDIJD0gZFLZBhQhl/qIlEIAAKWkHSAJBd4GaCB1HaC4FuQqwDETc4fQSOyAC22fb4BEESShQtr3QXOLcj3r0opyA1SfqHNKOVpABo3ITK4H3NVhFZEqFfzgIm0DoqOiQxIAIJGcDGVCACbVoRG6DQhKJQ+tLsCDIzXcCNCDpMGDb0O4XiUhbzrnyAMPKdihVqYMyJTDwG+mBMhUPImzISH21f+LA6CAxtU2SbJlZSA0lTnJDIQ0n5uAgRqMZjRRGsgnKCSmYspams+tsmZDDaUYYeOELUBBSJUaafCgYKYr+eIwogHIhmRywSYdQEjiiaMtK+r0PKImpEgRDNA6AIlAtOJabkq1CvCFfE+NuoPQlqtb0+i94Ma56qFvXCgw6ds2uC1q12Rk1X5YcbVEIAG2AiBQkiqxzRVADm0SOzgeqosb5Mg1Eq7bK/m+vwwHeY4nGntG/KlHlFh7kG4dgWzj8UC6IrcB+bLPoD4x2SOsHjyAO8lZe9/UeN1erG7hFThfnf1A4qvz/1dqffg6cV8Ox+NyId9/tydxfbWc0+HxEw==);lineShape=1;" vertex="1" parent="1"><mxGeometry x="25.373130030948687" y="400.3713150177632" width="4.908724671228356" height="31.43689027375831" as="geometry"/></mxCell><mxCell id="11" value="" style="shape=stencil(fZbdcgIhDIWfZm8zQAg/17Z9j85U606tdqz9e/tmZ0c0uJ47xP0I5JwEBl59bp8/1kNwn6fj4W39M76ctgM/DCGM++36OJ50NPDjwKvN4bh+PR6+9i/z74/n6ctp9H74nlb4nbmSKZeJCu5vngmZ6jzzNAO7cX8FVKEsBuBKrgKg9oAE8gkCbLeUhEoEQKSUDZDLeWYRKIl8MEDRmHwfyBrBG6Amyu4+kDxxMoB3jhwgYu7TVAsVkFcWCs4CTBEoF4RctKeOxHIf8IXYpikHikAIf+MNUW94AGSSaoAoFIE3AlOyeWU+p2E5S9yfQZcQILVuQOwZdJNoS9Ls3wA5u2XZTIHECqeJ9kDpSaauRiNVcAY1QhdBzeLBli5WazpkSsBLV25uRaqWRyFawTQzRRIQYirJzq5atkBqLfouwqUxLBepthWb10vrWZY6UOAeyKCCtDV625mm9gmUC4Wc3VLJMMIE1BsA2FW9JraVlQB7n3c9oMKhCLEvIM1zBPZ25/umNQ1tVEC2G+fFCC8g398O2hNQuQlVu752DBfA+q0ptnqO5JFmeuIuo9DY7KjY71UxdJV4EntifPWorW++R/dC4t7V3DlIB5cHx2bc7eb3yvX//QNFp+bHDT/+Aw==);lineShape=1;" vertex="1" parent="1"><mxGeometry x="29.86796084247578" y="371.87531245851915" width="4.672539772115329" height="4.665236216357698" as="geometry"/></mxCell><mxCell id="12" value="" style="shape=stencil(7VjbbtswDP2avBKSSN2eu+4/CjRdg3VNkXW3vx+9VF5I22crMGAYsDfH0TFF8vCQ0o6vPt7fPO13KXx8Ph3f778cbp/vd/xml9Lh8X5/Ojzr046vd3x1dzzt352Onx5vz7+fbqaV09OH4+fpC1/PuBioxwmVwrfzm0Yh/3jx9rz+4fB4ub5R7GZ9YpK0DUiJWjYAlvFmHVCoBQOQQjVsAzhQYgPInQIDAFMoBlADtpApWR9aIBYAKJRslBp2WgHZOt3mMGwB2G2pUa3QhyYG0AMVkDgFBMuMnighC0zNOt2ZSgSARLlagFAuABAp2ih13WQDXOqUmwdExNa2sCBUOmRrFe90A06nTLn7sGbA1iSDmxeJ6xgQbT20Prza2hJbHyoTg0yr0y8lPwAlkSCnZ1GZa7pTRfWg9WV9UMJDLrGvOA1DQIBK0dI7MlQNSb5EZVTU+vpOzQYpUABZyI1K9esB80qlZL+fScD6KsTNO4wUQzXObUilvgILKlmuN6iGCLCgRG7WglRI7akYbdJU6itQjF6p2iBVTSMQgBjmLF2Um4C8dc2z0xjlIgYEpwAZSsbkhNuShglQb/qeLTe1ySBzumOnYhdxWEdEKsGbQD1UNag4oWxQ97SfBdcdyrC5Dqi+rfdZCbf4Wl2Hi8SATZOFRdOFW2p+S1ONAPpNUXLaLaOotvLgOlxjqHtTqm1FtAQTN5GJvQVGgEqleR8qomsfTfxy+AFtfVlyGjcBgLWq1mEGmxDrtZKpI0DzcqxxgGFajHxTHBBASIoHdARIYwO/C9BJemEBkUn5nWXhNOJ39X19muBQBZUxJ1wkDoX19YA8pHFuEXU0vnXAYhAoBVqoGkQbpZypgOlHW7WrURHYIYrm1R2ydM4FJVc003ZLKY4369NJ9FoZC3UgTKKt325Jh0A4LyWvMxIogijJYnrICXY57r6AigypWge0xWCc4ST9t8596Mz0/9z3Avjj577snf7Xzn28IN/cYtYBcVDtsh7AlmL3HUgrLgARUFFxuqQ1Leg+KvlTlkQIWMwaSi4k3hpzy1XdYgExCqP/zesF6uRiMNFTWQTVpuvd9+PQnK39ONrhScmHp0LRTn4gLpBA7O/RMrw7FH/GEHj+LL7Nyii59S7ruwGW6uavJfOYfTZ45nhTxmS/MaG+8h72l+v14eel793h4eF8Z3z5v78k1lfnC2a+/g4=);lineShape=1;" vertex="1" parent="1"><mxGeometry x="34.97111284326468" y="398.7534320246257" width="34.15531826169422" height="26.279488554327145" as="geometry"/></mxCell><mxCell id="13" value="" style="shape=stencil(7VnLThwxEPyavbZsd/t1Jsl/IAFhFQKIkNffpyYrD+ue3SKRcsiB27C4xu52VXfZs9OLL7eXj9e7FL48Pz18uv6+v3q+3em7XUr7+9vrp/0znnb6fqcXNw9P1x+fHr7eXx3+frxcRi5Pnx++LW/4ccDVLLksqBR+Hn6xLhZ+//LhALjb3x8BSpUeJ0COEvN5QC4S2wwoovU8wJrUOgFKEI0EEKTbDDBpZAZVSToDujQ9D0hF8hx0xQxkSQk5mWeoXUo6D4hVdAa0KqGRGUzqDOiYk8ygWUqfZ8DOsLRGP0PDDEY3Lm2yFElas0mZyVcyDRpEiHMMeEUmQYMINcz0Vgmc3m0mn0YpJGgwp8wzYO+VzFBXMg9ATJI6BViagx5pOz0+SpjHJ+ns/VFSdeMTETTGuxRFyWx8kjZnCHpl43Us92W8ETWjhGlz41lBqkWafz+jRG0+/xhPWA2ldx9vIgyCqlw1CrRUtCRqLv9Mlk0lFje+EpFhfMmOD0b4g/GuXivlDwqbzu/vNP+tS57zE8soZScBKIQ6B4z6zTLU1QMUBZ+kqBe/ZZnvcW9e9CVJJqSOYSXlWkwD3bbevSwhVFYnAHCNGUplQuvVCxNSZfUdaTLzABZ1R0NoHlBZXpPXGgCFLSmOWnsEYGzt2Ifos8RmAF1T8PvQmD6bty/Y6U6ytMxQPIB1csQQN35HWVqjmGvMMGUsSyBC8ABlGoV/ahsAi6GMrB8BWOuH5KJ5QOcCSs1n6RUBOSu8tGoWdB8LOKIGs8IAmNN0Gh7rXNCmHtC5RLeaNrbT2WdpkShbko6cHANIvQf52kbT7EgCemv3QTeycRCQbTTNvPMiUae41TT9I0AdPX8lH4wq66JZ4kwNtKDGAOj6rslVSSRo+BjvIws9VsFYJWdM6jDHpwHmJRoDbShv1vbN2v7X1nal18tRrZPauOTHrR8LYgGEUWuPTpuFMaiP960RIMdM9cX3KLMhunOcdtU351H8zp2Yg+vkdWzjaYBu2mYdvDp9r4BD/ExrVEuWJVuvf9YjSaKnfgve2cIcJ3Zdswn6yOGfPgE0r53F4ROygqtz0PBYrJNvDhiN3yusLXIdH6gnLP5GC9WsEDEs1HeAQHtm7F7Ny70fWVGq/jYodyo3HANdv1num8imQSvubIuuzJxFTt7WWqFLKpuWZkq3rWzOI5ZebbJuhkjtFCqAOyItAFYyTHrySwqEGihKpXqAsRmaP9su937c7LiNA4C2kuDlYEb3AQBHb8vUHQHgnDaoQd1I32Sp0gqALHnytdGQTgOqd3gAdJbWv/288AcAPLx8zbjZ390dPoYc/99//cBPhy8n+v4X);lineShape=1;" vertex="1" parent="1"><mxGeometry x="73.29941018209365" y="383.89524215509437" width="25.836563451458915" height="52.669317387634464" as="geometry"/></mxCell><mxCell id="14" value="" style="shape=stencil(lVjLbhsxDPwaXwmJlETpnLb/ESBOYzSNAyd9/X25deVY1O4EudlrjcXHkBzuTm5eHm6f9zsOL6+n47f9r8Pd68NOPu2YD08P+9Ph1T7t5PNObu6Pp/3X0/HH0935+/PtcnL59P34c/mH32dco8QLiMOf84OUqMR/T76czz8enq7Ox0ohj4BMMW0D7IZSPUABIAWK0w2q24AcqJQRIFR5G1AiNRkAUqnmbYAy5TQCmEIFAO0GdABnCsAHrd3FDoiFGvKh9Z8vN0QqwIdcKTkfAgnwISlx8GGNYRsgjfIIyIVqAwAlGU0qtT/ZokYeuaQZRik1n+ka+pP1sAZKDsCkoB4sD6l4QAYmGZda9IAKwqqlM+cCEGqIrZXKSI2aqQLyWUx4DGu1PBQI+J/XDmixF+0WQEYf2rs+6GhSKz3QW1GSkXztQvh1gJHZmdR6H9nKtI7UiCFQAJkrZpP4KxJin/iCMCfgDZHCyL5mqQZO5NZ771UiGITJAHmkawt9ZGxW0JiIqn0CrAOYxBVEJkE3WCsdfbCCyOiGOt3AVBA3omffAkA1mldqNKF+rz1NV05HxO9GNfmwJuD0UqNT4hj4YIAy1WgAbNVJOxj5CnaanUkK2aqJ2NG7kaC2MTcmmwBgBH0YYCMtsAcUALCZlVxYS2+364JJJy5VyiCsJsncDUZHAYmLUx6K9tG9KfpGp60tICnAwbcZE2loBHGaNBxDHWqyUkeTJEGFJdYYx2ZskgypEzPAKaw37bulQ+PodIxQVmbt0uKSB5gGG1k8WoTnT22+BcSuDFbPLxNzbN3RegIi0tsAvFKhqHe3qXwENxlriy7PtqAo0ldT784CtYlVtNs3jNzIB6toGQE2hhO4gadtoAS4Apn2l8kkJBzUbw+m9jPqYlN51k6t9eKh6mKqcLyxF2MWZLRrxL5NXc7bQAXVH6b/F5iBiaY5wpUy+NXHajuAeE5TJFkpgfPsqyApbl5+/0x478meP8uSjjrLdD7BZfKjbw3eP28f3l5R3B8eH89vOK5/96807NH5dYh8/gs=);lineShape=1;" vertex="1" parent="1"><mxGeometry x="98.77488511470938" y="402.6432215886607" width="25.892892977583415" height="31.69902148438905" as="geometry"/></mxCell><mxCell id="15" value="" style="shape=stencil(rVbZbtswEPwavS7IXR7L5zT9jwBxaqGuHThOj78vVYGquLImKNA3WZ4RubOzxyAPb8en18PA7u12vXw9/Bifb8dBPg3M4/l4uI63+jTI4yAPL5fr4cv18n5+nn+/Pk3I6enb5fv0hZ8zT4jjRGL3a36hSpr/vPk840/jeYX3Ss71BCaRfQJnyj0hR/KAIEqhv1KKpIAQiiXESOL3CcmRckcIQhEEnQOxdAQu5ABBa4i5I3ihEPYJpV6pV4kpKsB70j5mT5wAXmwEjgQEUIK9j2t5v49PJMXgGeEzaTD4gvQp1nZMHuNzr49QKsDWztkDIgXgoemAXtAMXV2USu8IpYQSkG0CCilKcE1AL6h32EGB8oaQsYW8WoJ84FFvQggo5Hq+lQhK6sj3nksUUcoqvr9PaAfu4aP1kAMeqvGGZGoyRYBnmwFHCd0/tBJf1SRKWGydfIXHltvUcEI1Vh1s482o5stWT4/0KbZkApwDFa+9QRPs6hXPPV6bw/8PvrbwvkX4AnuKenJGoFrVQNGUbYVFTwIkjalV7CKRwKIP0V6pzkIFJ0idc72JdBkl9/cDJterNOnG+4TcBumCX3x1X6Q2iFZ4NGoClV7T1Wy4H3Kr8tUBGQTAFNTiPcB7q2gtPAZ1UNuoabu5Nb4dPBs83rc2k7I2pgASUNuuwUsz1Q4+mvt4qKffJLh+ASSY21RZHFpgn/jXFfljfH34u4+/jKfTvM6v/7f7e3017/7y+Bs=);lineShape=1;" vertex="1" parent="1"><mxGeometry x="122.38496309963784" y="400.77398817192534" width="30.231501675328218" height="27.837090129378794" as="geometry"/></mxCell><mxCell id="16" value="" style="shape=stencil(lVbLchpBDPyavapmpHmeHec/XGUcqBBwYZLYfx+RrSE7mqUdbsuiXkktqaVJHt62T6+bid3b+XT8vvm9ez5vJ/kyMe8O281pd9anSR4neXg5njbfTsefh+f59+vTxfLy9OP46/KF9xknjoq7oNh9zG8Cufr3xdfZfr87LOxDoMidPUcqchsQE0nsHQi5chuQAhXfAaIQ59uArBH3KegnAt8GFLE550wFeKiVuAdUIQ9y8M7ZmGqANF1c9LzWRAG40L9rz2vNVBMASCPlCqjkPaCpkvMWUBCvoZHSAAse1ktXV2JKAQAiscm6UAY0ZW7tvKApgqyzI+6TqBHyqgBLUyAGI5Q9iekNpoRy0AaXHuCxB+0E4+Ga1XrlmGIP0OJnUIeSSfI9AI24liEkNHMqK2lIGg1EoTTSigaiUh0Lh2UgmebT1kBJ5yGH3IheBwTKZh60vVFIjqIJCQ9QiVb7PpvR4lr7/6cM5EQxDEKDADJMkDYwUnw30JQgr3cDdGuVnlelQYBshES+ZynlNrWrALnK0HXNRcrAg27q0HsIsa3W9SWUKPXSxwUKvrNirByBKgwrLkJRcm2dLQ4NEIy3BeDWuOv82xbyUI6G8uoZBGL3jnw19gKi8TJ+H82Yz5TY2gNyNDtONh7QbEpPLMYeCRervJtN3o6ydXvd46bVqACtvvfq/NxeH/6duC+7/X6+kJf/25NYX83ntDz+AQ==);lineShape=1;" vertex="1" parent="1"><mxGeometry x="139.20366313298814" y="405.2150350145939" width="11.506195129932848" height="33.47793946990214" as="geometry"/></mxCell><mxCell id="17" value="" style="shape=stencil(rVZdb9swDPw1fiUkUh/Uc9f9jwJNF2NZUqTZ1v770TPkhWpzw4C9yTZPFO94tCa5e9k/PO8mDi+X8+nr7uf8eNlP8mlino/73Xm+2GqS+0nunk7n3Zfz6fvxcX1+flgil9W3049lh9cVFwtFXVAc3tY3gUL4/eLzGn+Yj1fxkknYxQvFfDu+cP/c4wtpvR2viUp18ZGpCgA0av5AS0kgQ0uUfAYrQRkAKqkvQRKsoTWq0QGSdpZvAYYMRpskAFBiD6iZFGXIFJoDaCVBNQQqHmBbFMCSZspeh4WGAgCBYhwBAlrJSgziASYlAoSu61a0HRI1ax17qQqVCAClc9IBeZPyVobgmy9l2N6lEXuWBPuhMqlniZkYOLpWyskbKPfu+lg4y1BGixaQQa1bB4smyqCGJhR8BptKiNZWevdvLAXsB6PVA5JQBoAYtrm4SV2poCKUmpe6Rlx1IfEZVHDVJqzPYMQJEqISD6ZWPI0jNX+kKx7+E8IcE4fBEUmB6cwAmkae0MSP0gfRpoRCS8QwNmwtkNhCbUjA0EKJoo+3QcJgVhqpXresVMF5Qu/lLR5r8K63k41/cJ4w9pFEYvC/ipS8Yry17scS93/T1cBg4M78zmpwRlrH+XIFsmPjLfvtAwmaFf94p/p7vC3+XOCe5sNhvf9dfx8vfPZqvSzK/S8=);lineShape=1;" vertex="1" parent="1"><mxGeometry x="167.9168177938077" y="408.9219795253655" width="13.916083277231337" height="5.314734235460719" as="geometry"/></mxCell><mxCell id="18" value="" style="shape=stencil(lVbZctswDPwavWJAggf4nKb/kZk4tadunHGcHn9fqBqqBh1tJm8ShRWxWFyT3L3uH152U+TXy/n0fffr8HjZT/JlivHwvN+dDxd7muR+krun03n37Xx6e35c3l8eZsv56cfp5/yH3wuuEesMivxnOWBi/nfwdTE/Hp6vzGOmVp19IWnb9klIsrMPQjlvAwr3zx1gHmncBlSl7D2KlULZBrRIOTmARMi5ZQreJUnUEgDUHpMOSIEC4NBMBfGARi1AQGMvA0MdbgE1UAI6zC550ho+Ip2iAzSmWnFYfZTsF1AHE87n6sxKtwHaSNsISCCsasL5XDInBZBW+xx8lJQi4KDSdV11UKoCAeJTo1RqGFD8DblgQKLq6yEVUhTWQtmHVZQU3aBdphVgTgJAC1SGEg2kqB7SqIPdkAGHVqjyyKGi9LY2U8YoVVxAww2mQwUuBV5b75XUCDFns8+NuRmiLqDEPq4mDaMb8qicnUTUXIXSTY0KuoE7xXVAMB5Bn0dUK+uhNUXYXrOO3dI6QwEA6+/VNw5lKiBOMVHy6VQTBcRhnHJzG0AUxi5QCgWgg5AOuRdhKsWeBmt2r0F+P7uJvf+Ze328a2/jzPtjm0QAfG9qZ57RgC/3aKxbQ+kR2LBXXzlhndkbfJsvzRDhCiDjylAogfDb7PTuRDjN6xh9poh61+eWwg/N7eH//vl0OB6X9fX6+7iv2tGy68r9Xw==);lineShape=1;" vertex="1" parent="1"><mxGeometry x="171.13040564200628" y="425.1372385324796" width="22.465399652532597" height="5.48601032004558" as="geometry"/></mxCell><mxCell id="19" value="" style="shape=stencil(lVbLctswDPwaXTEgwec5Tf8jM3FqT10747ht8veFqqEqQtJ2ctMDSxKLxRKDPLwdn14Pg+e3++36/fD79Hw/DvJl8P50OR5up7s+DfI4yMPL9Xb4drv+vDxP769PY+T49OP6a1zhfcLVStWPKM8f05dITv5++DrFn0+XRXxJlEMX7yqFsg/IkQp3AInkEwA4Cq4DhEg17wOS7tADYqbs9wH6u0oH0D1zBQCmWjuA0sAOAnzsABXnEAqlnqWaSRgAQmN9BhRYBykk5kiVBBxJmIq3gAJY8p6ys4AKjuQClWABCYmPONqcC8p5FZ+bVDbjmST18YkiEBI3IS+q7IC0laDcxwsVUIJMyRA6r7BHqO91Wl1T7l7JnLOABBhSUfiwAiAVKeNic0AcqbAdW5IYiEJbRwyrugTuZm+EHSmCpIM6nMkhwbqFtMqhNKK3AUzRdHOFAJHVkSplJL1IoU/aMRMDh3FqQKszFQRgcqt2doimDQtDhePmJosyIFOd81vUGYn7s/GBpK9BUZJBDdRv+2bTawe1grZz6Ns5JmiomkHpAXp1emBg6jAGILpnALqbDXGWUWmmudcKxiOlXb7b8Xo390XwsNWis0VTx0M3c7Sqdq1Xt4cLtuMLt6Jsxyc7T2lXgApksdMO7spc2423WB8UTCVZo4mPIF7t3K/4AfyP1tmv7+H5tcWjM/GohxcuNWuaGCXwyYH2//H68G96fjmdz9Pwvfxvp239NE3q8vgH);lineShape=1;" vertex="1" parent="1"><mxGeometry x="238.60038243742883" y="297.3707908935701" width="6.019267026719717" height="35.96885264012917" as="geometry"/></mxCell><mxCell id="20" value="" style="shape=stencil(lVZdc9pADPw1ftWcpPt8TtP/kZmQ4imFDCFt8+8j6rj1ybANb8bWotvVnqRB7162D8+bQcLL6Xj4vvk1Pp62g34ZRMb9dnMcT/Y06P2gd0+H4+bb8fC6f5x+Pz+cI89PPw4/z//we8JxCBTCGSbhbXql1MqfF18nwG7cLwCtEbcunhPlCgCRmvYJmBLKoMSxA0ShnK4DaqPUU0iRMshQI9X+SLmR8HVAqZS5A9REKQJApNCr1DIloFIxTfojtUJFrgNyIs09oEJAyiTSAxpFcKSYKFQPaEAl1RVpA4AMYqRXR0KFY55FXAACIB1Jgxfp44wX4wPF5MuGGFi8q1qiCiSKJL217XYUEG+Eo5NUqWBJo3gAA4VUZoJ/AYIpxLk/LAGgaGY8Vn+kj7Jcs7Y0r1IADaCsVUoYcOl6MvBFMYrOSIUUZMhlLtPCeRHImtrcUBbWlgzqUKmtAKhwWoh7Dovmf9lMVoh0Swq2vqsrEsAbmbSsVAJuZVJelQGItBpuVmcBjG+Nt+x9DWwuqML77AjY5AmAAMvcchezLQKn2jTm3ng2PVGbZ1O852DzOaImXP1t+88GwGVu6p9bMSxB9fGoyYuQ9gcSYuBSsRnQu9Sqglpk8lMhQL5x1eUDCTBFUqrVxaNrmdU3Ixxf1FcYn6eK3xQwX9u/crpBz7bq77he1hOqX1GRH27eaT8BsId/K/TTuNtNG/jyu1+57dW0ruv9Ow==);lineShape=1;" vertex="1" parent="1"><mxGeometry x="384.75198121315566" y="289.4387270508573" width="3.820749969243252" height="39.29701122772508" as="geometry"/></mxCell><mxCell id="21" value="" style="shape=stencil(lVdJbttAEHwNr41eZj07zj8MWI6EKJYhK9vv0wxBiTMTFeIbTXexl6peNNnD+/7pbTcpv1/Op6+7n4fny36yT5Pq4XW/Ox8u/jTZ42QPL6fz7sv59P31efn77Wm2nJ++nX7MX/i14ISZmGeY8u/llZHEvy8+L4Dj4XUDqExFG3sxynwfUISyNQDNlMJ9QI4UUhtRpgI8pEIlNIBQSQsAKEkbUhIyuw+IkVgagAdp+T4gFIptDqWSCABk0twAaqYAeAiRcuuhFtIKAEK1rVKtxCBpS6TcAxLgQT3FwUMFHlQoygAAOUggGULKgGlXWu3tDdCgVGNfVKRVXlWwYa2AjJm0FV5NVEH8SjH09pJQvtyJwpsJ6NR71zoGAg6IKcUekBHHV1VuASAFi6vuNzkw6jXv3dIDEuo19zBUFbX/3JztzHOaEQ0hDbwVYgUAG5IucObZWNZKAXWz99oAKGDAaFirfh30t13xbzElCqMLICYfJ3nIAY2wQawFfp+p5t4eDeFhFTrNCmj+qL1XtCW5ePzAXpikTcDXjmAGStv/vtiQ7uaB163OshbtXjt3E9WXcwAcmK0DerP+0XL2dtYW4ENKUXc6qZ0HSoiF2t8XAlOO2n/fBw7YCfE6old7xueLkNTO3tD1knpZM1R1tjEe1MbZ68O9PahniWs5bvaIYL8gk3X2iK95I8Wu/gL4mkdtzy+6EW4nxE0/6PL68Mn8HwB/uF3oL4fjcTnwt//vL3p/tfwasMc/);lineShape=1;" vertex="1" parent="1"><mxGeometry x="542.7605780868907" y="290.5131455426573" width="5.721875000166847" height="51.17359923496099" as="geometry"/></mxCell><mxCell id="22" value="" style="shape=stencil(lVnLUhsxEPwaX6ek0ftMyH9QhQmuEKCAvP4+vXFpWY28TXEztnpXmumZ6RaHcPV6f/N8PKh7fXt5+n78fbp9uz+ELwfV0+P98eX0hk+HcH0IV3dPL8dvL08/H2/Pfz/fLCuXTz+efi1P+HPGpSIaF5S6v+dvvJfY/n/z9Qx4OD1uASpOB0CTGvbXxyzazHpPnh+9hDJuyEnTfUCIkvIISFIdATjJ4458kxT3AZoljlvSKErOrNp/XgFNMjmDr+LGLYUkiZzBRyl+ACBusRIA0pZGQJFEzoCoBzcAUpBAEoe01nF9E0deUCWPxMuxU3Hn+W08QFEpZD1C5EeiVtdjcDlrTsqYtZpEMwG0TswVgCAQAJLqxqw1J5FsKcbOgs0bGgEkHNEAqkRPAKnTZnPoVvYB2dszVKXllrPkEVBaf8RFQPG9oayASKunZCljHnKj1KjecjXzN1SU21ifIHcixVCLbRkItCNRWogwAlCfSqIEQDUdAH2SAMAc01hBx8AKNPdBsAIc5RKIkMaS1iSFsLVU8aaxemkkrCVYaqB1szOArdWMt0i7WHaiZvwESYQaS5cb+xJaLRtwqUoY2YpWm1hN195U1oqTQioU69OYt9JH9t4J0ngCPnsQItOJY2fW5fVqO32g1YlajHZ9JqMNDcawKNIE5GL3k+g0z9XOWnQ0dt4mOsYHGWf7b73QN4TwDIDROTZ5aLbKdlRskweplQHWGbApGyUcXWa3WkBmSVCJEyCR2QnWlWzPUAkAtI4mrEp5tNSNt2H1rHBQmGOi0YzYjlYevBcmGyI4gSH2B6PZ2cLB2GKFPGlCRJTlLNhmisJkhZPs5A/SWIo/uR5zP9tCy4SkmE9+SjCTLpjixUyPTMugqTQj/JWP/SLejMxKSdrgtkYOhUyngXeTJIypN8DdPRnaxS6wLgNi38FGHbGJ0LykSX8xHYxEmNIsjsYVqTZaviRaa6XY2oFIZG4BKjUbt5B7LvfYbXzqovl4A1MD4LYT1ty+oXTzfdleJDvZQC/mwUKzHW9Dr8sItWYbr2C+E8N1PgSzPLNta4kbw2Sd7VK2JBEYx3FyYUwIZ5s4+IdGino11hunqsz9i58NEsmz60Z8LbdKDzx1DHR+JQ3A9S661n+RQOKjU4NxND7R3lFFrvCKZWkoVIH5SVssd0T8bsE4/0VzsjesNmUtHIgHkuJl9BmNx9UL5oYxkJXGKIROsXexwHwOQmhGm+9f7N37mRDxRpEmi40hwVxOsxI1UPGVV3e8ETtMHPnpho12a4ipMLkKJuK1W+N3V0FdiNr9F67I1Vrl+tF+zFVTo5dfiE+zo6C3pT2AIRwAlZ1guoGEXKP6ul0AMEEIQW4a9QJgivzTt+UfA/Dh/XL+7vTwcL7b3/5uL/Px1fkfAeH6Hw==);lineShape=1;" vertex="1" parent="1"><mxGeometry x="206.84986357565708" y="357.28305161009894" width="49.7392708404991" height="50.06710772572342" as="geometry"/></mxCell><mxCell id="23" value="" style="shape=stencil(lVfLctswDPwaXTEkAfBxTtP/yEyc2lM3zjju6+8L1UNVhOzN9CbLWIEAFgtw4of3/dPbbkrh/XI+fd39PDxf9hN/mlI6vO5358PFniZ+nPjh5XTefTmfvr8+X3+/Pc2W89O304/5C7+uuEYSZ1AKv/uLWv6++Hw1Px5eV+YpUkyDfaWW7tuzUh3tCyW+b6/2/TrYC6V23z5HajLYRwrg/DUR62AfKIT79q1Q8OdvCuwbxTCeR4hBwDEsB+iIlKihIzXKI4CZEgLU/r0lp0KaYdA1DwDNpBEAMpUyAHLtPLkNUB9DDd3nbYCQjHUwnw3ktXHn8QIonSq3AYmkjYBKFXkIJDwCGsxStbQ2D2gIoBRlAwDdYOyW4gEFxGBZj9kDIuifUknUZ4lB4UohZV8HrhAgowJYpRm0nB2JnYQpMYqhec0wdimghqU1usIx5FKVzpwVIIMYjBq68ZBBpdu2cEIBCZMJX/CAglSDqWSfVgWFm1vUecgfAaLjUqGMZIYpuMJVUhT0ZpoYvRnoUq1eyAxQUYtmCmOWVoJ+G8F9HqxdIG6EjZI13EF1w+8K2WctV8QXooA0GYAdXTMk0/8DWlf31YAoqOU2DWEjKADpmz2M7LMhJyitjdKoMzZGUY/OSjZ6sEGtCLDI0LIKWBMiQOxsXtinEDBzya97ARQ6N68aMVIBSdLi57TtP2igSCJ1HjIl4CFp5/ICKLAMkXt7LQAbYoBKFqKTGQPAwU6peHu082mn/ioCtAewn+pmn0BOrUTRp1RA/wc/oo1FAjK62VitxgJ2gODXGCuJgHiD78yY+mi5TYkuhyuSKrAXfweIWFuyl0ezj2g4b3ZVeKf68ApmD/+uby+H4/F6+1v/76979up6VeTHPw==);lineShape=1;" vertex="1" parent="1"><mxGeometry x="367.7956153289981" y="357.83524045192985" width="18.953734780344575" height="50.61952157734959" as="geometry"/></mxCell><mxCell id="24" value="" style="shape=stencil(lVbZbhsxDPyafSUoUdTxnKb/ESBObdS1A8fp8ffldquNKWQnyNta5ogiZ3hMcveyf3jeTZFfrpfz992vw+N1P8mXKcbDab+7HK72Ncn9JHdP58vu2+X8enpcfj8/zJbz14/zz/mG3wsuUq0zKPKf5YCJ+d/B18X8eDjdmAchZWefiGXbXpiCtw+JYtoGpEBZHMCeKGEboEKtOID5rLoNyI2SB5jPCDzUQiE6gCpMUivUfNA5UQNZapVy8oBMigCNoqfNoqogBgMU76EkSiiGRs17KOYBEDcDfFqrkgIe5icFB2iMs2RBe2k0pRRhWtXHMJ+gJxWq3kNgXA+GYPUuGmVERCbxRNgVCQGUyuBBKKMglCR7IioVlCbt8l8BQgERYR68vovFkCFg0HexokZPyhQGfddO/hagevVl7Y1ki7ix5BKVBsWUwuih4griNsbwQUHkMGapYECTkYf/Rfh+935T8w3VUExW9L731QabpQGGNDWbEEgbtTeum4LImIghr3MnQWIqfYDcABpqZZ8F1DwyZ61MAMC6NQ8FkaEHm3Lqqc6lX7E1R4cK0kYBAKIl0UtDAzXAg60CwwxK0pl530NX2mrPUN6r+3WwGwtASYHEv0cq3E24z7PV3sZ6RfbJl4LY3gCqjXsTXTeZ3Itpw36oTcsYg1LjHt06rArMP49tPlgThu9Xz1fte9BG+tlfn0hRLxpns9ENxBDHx1uBQa19aq390Nw+3jbop8PxuCzgt/+PG7cdLdu63P8F);lineShape=1;" vertex="1" parent="1"><mxGeometry x="358.5327879080385" y="403.52930593788597" width="53.02865252695642" height="7.217658646664404" as="geometry"/></mxCell><mxCell id="25" value="" style="shape=stencil(lVjZThwxEPyafW25ffs5If+BBAmrEIiAXH+fsjYe1u2dIkg8zA5d476qDx/Ch+e76++3B++eX54ev97+Ot683B3Cx4P3x4e726fjC54O4eoQPnx+fLr98vT44+Hm9Pv7dZfsT98ef/Yv/D7hvErRjvLuz+mNRuk/8ffpBLg/PpwDmpQyAaqUui8fkqif5JMkIh+dxDjJB3FMPkmb9VHRsC+fVPIs78Q5Il8leiP/7wMX5TPsTUb/QL5fVEKY5Iso+X4pQ93NXi+OAKpKazMAJhEP1TwcOAA9ZOyEJmF2UQiSSQ41hGiOcfRSEwW42anpDaOLtPmErDQM1YufvZSbNCVxiKJ1jluRQtyao+TZrRVMI0anKG62AY6m1EGmzYDG4xA2am2APBx9mfzBkgGAlvcBCjZkC/AsDhJmdrbNz5dNkGi+72jYnKRZHtmeIpM3bAOdMomyWnsLHETsDUPbTd5LIPYir+eIZU5mVPNkAInWL2iUswX8o8ZeEpWZm7mMxL2cplvabzY72nJAhDZnHcjHkggaJ+NVNCmiEqhrwgBuFnICssx0tZ535IRWJc/1pSEO7IQ28uCMOcqKapMaLKCSE9Qtyd0KLfT9CMO2OrrXHsA0c7xxzAjEKVsAVanY3ACAEa4XLNMOHZ8Aek1cdKLdKtkE734gVbItrQF+qMxq5H+xAOUn+CXUrM4AYCOXaeEDoBmj06hVe15aGZF4HEwpe3X0Xm4kvwCYDailagGRE0LLYjQnhBm3u1UscM0W/B440uA6wASu0gEagKwWUPkJzgDa8NueW/0CqKwKlDGrvYOjYeFoY0dsuXYGyMyIpae8AcAIastGEkcaKZpanQmBeY8Bspc8U66GoeTlRupH+m99EZEjDIq6jCe8CQUvOttQglTSFzFuVDMMeNqqMdAYjuIE2khtZvRZgC1kdj/EKMAWSlU7RCNsSqKgy371ug9d9pFfehwCSYpG0IXS25q/F+fVBjYWY4s2ha8m6lWsX4YN1XHAMs6AH5kYjRlOZ0ZjDmXrElY+N7s1NTrDIRHSbHTfQolKAJg6hhWtEkZDJXt5wN2KXDb0wQaV3igys9HIrsBGYzcSYavF/IICw3cxA1agNSNlOwhUOiPGZgNdaHKHNurDppDSA0IcJevMAjaZQAFTY5QPfD7byUR56vUbmPkEbKaeAaINGwAszijEKbzrBG/Z0G1glweoQYvRbLoCwFyAaB1F4TLALSpV2kG7T4xKZUzW/wvI40pkVyWTGnzvu2B0pNvG+29w3wbg4fXC+PPx/v5033z+f3vBjFeny+lw9Rc=);lineShape=1;" vertex="1" parent="1"><mxGeometry x="509.33055982136125" y="361.2962381080363" width="47.56095707879285" height="57.62761858254612" as="geometry"/></mxCell></root></mxGraphModel></diagram></mxfile>